<mxfile host="app.diagrams.net" modified="2024-01-27T12:59:35.645Z" agent="Mozilla/5.0 (Windows NT 10.0; Win64; x64) AppleWebKit/537.36 (KHTML, like Gecko) Chrome/121.0.0.0 Safari/537.36" version="21.6.8" etag="Hoz4X7WseJyea5ZaLp5o" type="github">
  <diagram name="第 1 页" id="eRcXzVQXcVtSs4NZwl7L">
    <mxGraphModel>
      <root>
        <mxCell id="0" />
        <mxCell id="1" parent="0" />
      </root>
    </mxGraphModel>
  </diagram>
</mxfile>
